<svg xmlns="http://www.w3.org/2000/svg" viewBox="0 0 360 300" role="img" aria-labelledby="title desc">
  <title id="title">TrailForge fictional backpack concept</title>
  <desc id="desc">An original illustrated backpack with a route line and compass marks, labeled concept and not a real product photograph.</desc>
  <rect width="360" height="300" rx="20" fill="#e4edf0"/>
  <path d="M0 240 100 145l43 42 70-91 147 145v59H0z" fill="#174a3a"/>
  <path d="M0 258 93 174l48 45 75-91 144 133" fill="none" stroke="#28a9b8" stroke-width="5" stroke-dasharray="12 10"/>
  <path d="M285 34v51m-14-26h28m-14-14 10 40-10-8-10 8z" fill="none" stroke="#172026" stroke-width="3" stroke-linejoin="round"/>
  <circle cx="285" cy="60" r="22" fill="none" stroke="#172026" stroke-width="2"/>
  <path d="M113 100c0-21 17-38 38-38h45c21 0 38 17 38 38v13c17 10 27 28 27 48v58c0 17-14 31-31 31H117c-17 0-31-14-31-31v-58c0-20 10-38 27-48z" fill="#f05a28" stroke="#172026" stroke-width="7" stroke-linejoin="round"/>
  <path d="M151 68v39m45-39v39M112 118c21 17 35 21 61 21s40-4 61-21" fill="none" stroke="#172026" stroke-width="7" stroke-linecap="round"/>
  <path d="M128 142h90v78h-90z" rx="9" fill="#f7f4e8" stroke="#172026" stroke-width="5"/>
  <path d="M155 142v-13c0-10 8-18 18-18s18 8 18 18v13" fill="none" stroke="#172026" stroke-width="5"/>
  <text x="173" y="174" text-anchor="middle" fill="#172026" font-family="Arial, sans-serif" font-size="12" font-weight="700" letter-spacing="1.5">TRAILFORGE</text>
  <path d="M157 191h32" stroke="#f05a28" stroke-width="5" stroke-linecap="round"/>
  <rect x="15" y="18" width="102" height="28" rx="14" fill="#f4c542"/>
  <text x="66" y="37" text-anchor="middle" fill="#172026" font-family="Arial, sans-serif" font-size="12" font-weight="700" letter-spacing="2">CONCEPT</text>
</svg>
